# xmcd
#
# Track frame offsets:
#	183
#	13568
#	28293
#	39630
#	52515
#	67655
#	80320
#	92080
#	101213
#	116248
#	129840
#	140458
#	156783
#	169200
#	179978
#
# Disc length: 2524
#
# Revision: 4
# Processed by: cddbd v1.5.1PL0 Copyright (c) Steve Scherf et al.
# Submitted via: Advanced CD Ripper Pro
# Normalized: r2:TSWAP
#
DISCID=c409da0f
DTITLE=Various Artists                FJGG - Lo Mejor Del Soul [CD2)
DYEAR=1900
DGENRE=
TTITLE0=Ben E King and The Drifters - Stand By Me
TTITLE1=Percy Sledge - Warm And Tender Love
TTITLE2=Otis Redding - These Arms Of Mine
TTITLE3=The Dells - Oh What A Night
TTITLE4=Harold Melvin and The Blue Notes - If You Don't Know Me By Now
TTITLE5=Bobby Vinton - Blue Velvet
TTITLE6=The Platters - The Great Pretender
TTITLE7=Gladys Knight and The Pips - Every Beat Of My Heart
TTITLE8=Bobby Womack - Love, The Time Is Now
TTITLE9=Aaron Neville - Tell It Like It Is
TTITLE10=The Fleetwoods - Come Softly To Me
TTITLE11=Ray Charles - Georgia On My Mind
TTITLE12=Lee Dorsey - Working In A Coal Mine
TTITLE13=Gene Chandler - Duke Of Earl
TTITLE14=Sam Cooke - Wonderful World
EXTD=
EXTT0=
EXTT1=
EXTT2=
EXTT3=
EXTT4=
EXTT5=
EXTT6=
EXTT7=
EXTT8=
EXTT9=
EXTT10=
EXTT11=
EXTT12=
EXTT13=
EXTT14=
PLAYORDER=
